<svg width="28" height="28" viewBox="0 0 28 28" fill="none" xmlns="http://www.w3.org/2000/svg">
<path d="M21.875 4.66675H12.2068C11.0664 4.66675 9.98606 5.10366 9.16589 5.89641L3.38564 11.4836C2.69731 12.1492 2.31873 13.0422 2.31873 14.0001C2.31873 14.9579 2.69731 15.851 3.38564 16.516L9.16589 22.1032C9.98606 22.8965 11.0664 23.3334 12.2068 23.3334H21.875C23.9656 23.3334 25.6666 21.6324 25.6666 19.5417V8.45841C25.6666 6.36775 23.9656 4.66675 21.875 4.66675ZM20.7439 17.1728C21.0857 17.5147 21.0857 18.0682 20.7439 18.4101C20.573 18.5816 20.349 18.6667 20.125 18.6667C19.901 18.6667 19.677 18.5816 19.5061 18.4107L16.3333 15.2373L13.1606 18.4101C12.9896 18.5816 12.7656 18.6667 12.5416 18.6667C12.3176 18.6667 12.0936 18.5816 11.9227 18.4107C11.5809 18.0688 11.5809 17.5152 11.9227 17.1734L15.0961 14.0001L11.9233 10.8273C11.5815 10.4855 11.5815 9.93191 11.9233 9.59008C12.2651 9.24825 12.8187 9.24825 13.1606 9.59008L16.3333 12.7628L19.5061 9.59008C19.8479 9.24825 20.4015 9.24825 20.7433 9.59008C21.0851 9.93191 21.0851 10.4855 20.7433 10.8273L17.5706 14.0001L20.7439 17.1728Z" fill="#EBEBEB"/>
</svg>
